<svg width="17" height="17" viewBox="0 0 17 17" fill="none" xmlns="http://www.w3.org/2000/svg">
<path d="M8.49968 14.834C10.1794 14.834 11.7903 14.1667 12.978 12.979C14.1657 11.7913 14.833 10.1804 14.833 8.50065C14.833 6.82095 14.1657 5.21004 12.978 4.02231C11.7903 2.83458 10.1794 2.16732 8.49968 2.16732C6.81997 2.16732 5.20906 2.83458 4.02133 4.02231C2.8336 5.21004 2.16634 6.82095 2.16634 8.50065C2.16634 10.1804 2.8336 11.7913 4.02133 12.979C5.20906 14.1667 6.81997 14.834 8.49968 14.834ZM8.49968 16.4173C4.1273 16.4173 0.583008 12.873 0.583008 8.50065C0.583008 4.12828 4.1273 0.583984 8.49968 0.583984C12.8721 0.583984 16.4163 4.12828 16.4163 8.50065C16.4163 12.873 12.8721 16.4173 8.49968 16.4173ZM6.03759 9.4269L4.06001 8.81019C3.63251 8.67957 3.63013 8.38507 4.1558 8.17369L11.8611 5.19703C12.3084 5.01494 12.5617 5.24532 12.4168 5.82244L11.1051 12.0133C11.0132 12.4542 10.748 12.5595 10.3799 12.3561L8.36034 10.8614L7.41905 11.7702C7.32247 11.8637 7.24409 11.9436 7.09526 11.9634C6.94722 11.984 6.8253 11.9397 6.73584 11.6942L6.04709 9.42136L6.03759 9.4269Z" fill="#E0BEA2"/>
</svg>
