<svg width="17" height="17" viewBox="0 0 17 17" fill="none" xmlns="http://www.w3.org/2000/svg">
<path d="M8.49968 6.12565C7.86979 6.12565 7.2657 6.37587 6.8203 6.82127C6.3749 7.26667 6.12467 7.87076 6.12467 8.50065C6.12467 9.13054 6.3749 9.73463 6.8203 10.18C7.2657 10.6254 7.86979 10.8757 8.49968 10.8757C9.12956 10.8757 9.73365 10.6254 10.1791 10.18C10.6245 9.73463 10.8747 9.13054 10.8747 8.50065C10.8747 7.87076 10.6245 7.26667 10.1791 6.82127C9.73365 6.37587 9.12956 6.12565 8.49968 6.12565ZM8.49968 4.54232C9.54949 4.54232 10.5563 4.95936 11.2986 5.70169C12.041 6.44402 12.458 7.45084 12.458 8.50065C12.458 9.55047 12.041 10.5573 11.2986 11.2996C10.5563 12.0419 9.54949 12.459 8.49968 12.459C7.44986 12.459 6.44304 12.0419 5.70071 11.2996C4.95838 10.5573 4.54134 9.55047 4.54134 8.50065C4.54134 7.45084 4.95838 6.44402 5.70071 5.70169C6.44304 4.95936 7.44986 4.54232 8.49968 4.54232ZM13.6455 4.3444C13.6455 4.60686 13.5413 4.85856 13.3557 5.04414C13.1701 5.22973 12.9184 5.33398 12.6559 5.33398C12.3935 5.33398 12.1418 5.22973 11.9562 5.04414C11.7706 4.85856 11.6663 4.60686 11.6663 4.3444C11.6663 4.08195 11.7706 3.83024 11.9562 3.64466C12.1418 3.45908 12.3935 3.35482 12.6559 3.35482C12.9184 3.35482 13.1701 3.45908 13.3557 3.64466C13.5413 3.83024 13.6455 4.08195 13.6455 4.3444ZM8.49968 2.16732C6.54109 2.16732 6.22126 2.17286 5.31005 2.21323C4.68938 2.24253 4.27297 2.32565 3.88663 2.47607C3.54305 2.60907 3.29526 2.76819 3.03163 3.03261C2.78385 3.27201 2.59333 3.56428 2.4743 3.88761C2.32388 4.27553 2.24076 4.69115 2.21226 5.31103C2.17109 6.18503 2.16634 6.49061 2.16634 8.50065C2.16634 10.4592 2.17188 10.7791 2.21226 11.6903C2.24155 12.3102 2.32467 12.7274 2.4743 13.1129C2.60888 13.4573 2.76722 13.7051 3.03005 13.9679C3.29684 14.2339 3.54463 14.393 3.88505 14.5244C4.27613 14.6757 4.69255 14.7596 5.31005 14.7881C6.18405 14.8292 6.48963 14.834 8.49968 14.834C10.4583 14.834 10.7781 14.8284 11.6893 14.7881C12.3084 14.7588 12.7256 14.6757 13.1119 14.526C13.4547 14.3922 13.7041 14.2331 13.9669 13.9703C14.2337 13.7035 14.3928 13.4557 14.5243 13.1153C14.6747 12.725 14.7586 12.3078 14.7871 11.6903C14.8283 10.8163 14.833 10.5107 14.833 8.50065C14.833 6.54207 14.8275 6.22224 14.7871 5.31103C14.7578 4.69194 14.6747 4.27394 14.5243 3.88761C14.4049 3.56461 14.2148 3.27245 13.9677 3.03261C13.7284 2.7847 13.4361 2.59416 13.1127 2.47528C12.7248 2.32486 12.3084 2.24173 11.6893 2.21323C10.8153 2.17207 10.5097 2.16732 8.49968 2.16732ZM8.49968 0.583984C10.6506 0.583984 10.919 0.591901 11.7629 0.631484C12.6061 0.671068 13.18 0.803276 13.6851 0.99961C14.2076 1.20069 14.6478 1.47303 15.0879 1.9124C15.4905 2.30815 15.802 2.78687 16.0007 3.31523C16.1963 3.81953 16.3293 4.39428 16.3688 5.2374C16.4061 6.08132 16.4163 6.34969 16.4163 8.50065C16.4163 10.6516 16.4084 10.92 16.3688 11.7639C16.3293 12.607 16.1963 13.181 16.0007 13.6861C15.8025 14.2147 15.491 14.6936 15.0879 15.0889C14.6921 15.4913 14.2134 15.8028 13.6851 16.0017C13.1808 16.1972 12.6061 16.3302 11.7629 16.3698C10.919 16.407 10.6506 16.4173 8.49968 16.4173C6.34872 16.4173 6.08034 16.4094 5.23642 16.3698C4.3933 16.3302 3.81934 16.1972 3.31426 16.0017C2.78568 15.8034 2.30688 15.4918 1.91142 15.0889C1.50879 14.6932 1.19729 14.2145 0.998633 13.6861C0.8023 13.1818 0.670091 12.607 0.630508 11.7639C0.593299 10.92 0.583008 10.6516 0.583008 8.50065C0.583008 6.34969 0.590924 6.08132 0.630508 5.2374C0.670091 4.39348 0.8023 3.82032 0.998633 3.31523C1.19674 2.78654 1.50831 2.3077 1.91142 1.9124C2.307 1.50963 2.78576 1.1981 3.31426 0.99961C3.81934 0.803276 4.39251 0.671068 5.23642 0.631484C6.08034 0.594276 6.34872 0.583984 8.49968 0.583984Z" fill="#E0BEA2"/>
</svg>
