<svg width="17" height="17" viewBox="0 0 17 17" fill="none" xmlns="http://www.w3.org/2000/svg">
<path d="M8.50016 14.834C10.1799 14.834 11.7908 14.1667 12.9785 12.979C14.1662 11.7913 14.8335 10.1804 14.8335 8.50065C14.8335 6.82095 14.1662 5.21004 12.9785 4.02231C11.7908 2.83458 10.1799 2.16732 8.50016 2.16732C6.82046 2.16732 5.20955 2.83458 4.02182 4.02231C2.83409 5.21004 2.16683 6.82095 2.16683 8.50065C2.16683 10.1804 2.83409 11.7913 4.02182 12.979C5.20955 14.1667 6.82046 14.834 8.50016 14.834ZM8.50016 16.4173C4.12779 16.4173 0.583496 12.873 0.583496 8.50065C0.583496 4.12828 4.12779 0.583984 8.50016 0.583984C12.8725 0.583984 16.4168 4.12828 16.4168 8.50065C16.4168 12.873 12.8725 16.4173 8.50016 16.4173ZM6.03808 9.4269L4.0605 8.81019C3.633 8.67957 3.63062 8.38507 4.15629 8.17369L11.8616 5.19703C12.3089 5.01494 12.5622 5.24532 12.4173 5.82244L11.1055 12.0133C11.0137 12.4542 10.7485 12.5595 10.3804 12.3561L8.36083 10.8614L7.41954 11.7702C7.32296 11.8637 7.24458 11.9436 7.09575 11.9634C6.9477 11.984 6.82579 11.9397 6.73633 11.6942L6.04758 9.42136L6.03808 9.4269Z" fill="#E0BEA2"/>
</svg>
