<svg width="17" height="17" viewBox="0 0 17 17" fill="none" xmlns="http://www.w3.org/2000/svg">
<path d="M8.50016 6.12565C7.87027 6.12565 7.26618 6.37587 6.82078 6.82127C6.37539 7.26667 6.12516 7.87076 6.12516 8.50065C6.12516 9.13054 6.37539 9.73463 6.82078 10.18C7.26618 10.6254 7.87027 10.8757 8.50016 10.8757C9.13005 10.8757 9.73414 10.6254 10.1795 10.18C10.6249 9.73463 10.8752 9.13054 10.8752 8.50065C10.8752 7.87076 10.6249 7.26667 10.1795 6.82127C9.73414 6.37587 9.13005 6.12565 8.50016 6.12565ZM8.50016 4.54232C9.54998 4.54232 10.5568 4.95936 11.2991 5.70169C12.0415 6.44402 12.4585 7.45084 12.4585 8.50065C12.4585 9.55047 12.0415 10.5573 11.2991 11.2996C10.5568 12.0419 9.54998 12.459 8.50016 12.459C7.45035 12.459 6.44353 12.0419 5.7012 11.2996C4.95887 10.5573 4.54183 9.55047 4.54183 8.50065C4.54183 7.45084 4.95887 6.44402 5.7012 5.70169C6.44353 4.95936 7.45035 4.54232 8.50016 4.54232V4.54232ZM13.646 4.3444C13.646 4.60686 13.5417 4.85856 13.3562 5.04414C13.1706 5.22973 12.9189 5.33398 12.6564 5.33398C12.394 5.33398 12.1423 5.22973 11.9567 5.04414C11.7711 4.85856 11.6668 4.60686 11.6668 4.3444C11.6668 4.08195 11.7711 3.83024 11.9567 3.64466C12.1423 3.45908 12.394 3.35482 12.6564 3.35482C12.9189 3.35482 13.1706 3.45908 13.3562 3.64466C13.5417 3.83024 13.646 4.08195 13.646 4.3444V4.3444ZM8.50016 2.16732C6.54158 2.16732 6.22175 2.17286 5.31054 2.21323C4.68987 2.24253 4.27345 2.32565 3.88712 2.47607C3.54354 2.60907 3.29575 2.76819 3.03212 3.03261C2.78434 3.27201 2.59382 3.56428 2.47479 3.88761C2.32437 4.27553 2.24125 4.69115 2.21275 5.31103C2.17158 6.18503 2.16683 6.49061 2.16683 8.50065C2.16683 10.4592 2.17237 10.7791 2.21275 11.6903C2.24204 12.3102 2.32516 12.7274 2.47479 13.1129C2.60937 13.4573 2.7677 13.7051 3.03054 13.9679C3.29733 14.2339 3.54512 14.393 3.88554 14.5244C4.27662 14.6757 4.69304 14.7596 5.31054 14.7881C6.18454 14.8292 6.49012 14.834 8.50016 14.834C10.4587 14.834 10.7786 14.8284 11.6898 14.7881C12.3089 14.7588 12.7261 14.6757 13.1124 14.526C13.4552 14.3922 13.7046 14.2331 13.9674 13.9703C14.2342 13.7035 14.3933 13.4557 14.5247 13.1153C14.6752 12.725 14.7591 12.3078 14.7876 11.6903C14.8287 10.8163 14.8335 10.5107 14.8335 8.50065C14.8335 6.54207 14.828 6.22224 14.7876 5.31103C14.7583 4.69194 14.6752 4.27394 14.5247 3.88761C14.4054 3.56461 14.2153 3.27245 13.9682 3.03261C13.7289 2.7847 13.4366 2.59416 13.1132 2.47528C12.7253 2.32486 12.3089 2.24173 11.6898 2.21323C10.8158 2.17207 10.5102 2.16732 8.50016 2.16732ZM8.50016 0.583984C10.6511 0.583984 10.9195 0.591901 11.7634 0.631484C12.6065 0.671068 13.1805 0.803276 13.6856 0.999609C14.2081 1.20069 14.6482 1.47303 15.0884 1.9124C15.491 2.30815 15.8025 2.78687 16.0012 3.31523C16.1967 3.81953 16.3297 4.39428 16.3693 5.2374C16.4065 6.08132 16.4168 6.34969 16.4168 8.50065C16.4168 10.6516 16.4089 10.92 16.3693 11.7639C16.3297 12.607 16.1967 13.181 16.0012 13.6861C15.803 14.2147 15.4915 14.6936 15.0884 15.0889C14.6926 15.4913 14.2139 15.8028 13.6856 16.0017C13.1813 16.1972 12.6065 16.3302 11.7634 16.3698C10.9195 16.407 10.6511 16.4173 8.50016 16.4173C6.3492 16.4173 6.08083 16.4094 5.23691 16.3698C4.39379 16.3302 3.81983 16.1972 3.31475 16.0017C2.78617 15.8034 2.30737 15.4918 1.91191 15.0889C1.50928 14.6932 1.19778 14.2145 0.999121 13.6861C0.802788 13.1818 0.670579 12.607 0.630996 11.7639C0.593788 10.92 0.583496 10.6516 0.583496 8.50065C0.583496 6.34969 0.591413 6.08132 0.630996 5.2374C0.670579 4.39348 0.802788 3.82032 0.999121 3.31523C1.19722 2.78654 1.5088 2.3077 1.91191 1.9124C2.30749 1.50963 2.78625 1.1981 3.31475 0.999609C3.81983 0.803276 4.393 0.671068 5.23691 0.631484C6.08083 0.594276 6.3492 0.583984 8.50016 0.583984Z" fill="#E0BEA2"/>
</svg>
