<svg width="25" height="24" viewBox="0 0 25 24" fill="none" xmlns="http://www.w3.org/2000/svg">
<path d="M12.501 2.16119C15.4372 -0.475012 19.9746 -0.387513 22.8033 2.44618C25.6308 5.28113 25.7283 9.79605 23.0983 12.741L12.4985 23.3558L1.90122 12.741C-0.728729 9.79605 -0.62998 5.27363 2.19622 2.44618C5.02741 -0.383763 9.55608 -0.478762 12.501 2.16119ZM21.0334 4.2124C19.1584 2.33494 16.1335 2.25869 14.171 4.02115L12.5023 5.51863L10.8323 4.0224C8.86359 2.25744 5.8449 2.33494 3.96493 4.2149C2.10247 6.07737 2.00872 9.05856 3.72494 11.0285L12.4998 19.8171L21.2746 11.0298C22.9921 9.05856 22.8983 6.08112 21.0334 4.2124Z" fill="white"/>
</svg>
