<svg width="20" height="25" viewBox="0 0 20 25" fill="none" xmlns="http://www.w3.org/2000/svg">
<path d="M0.5 25C0.5 22.4741 1.5034 20.0517 3.28946 18.2656C5.07552 16.4796 7.49794 15.4762 10.0238 15.4762C12.5497 15.4762 14.9721 16.4796 16.7582 18.2656C18.5442 20.0517 19.5476 22.4741 19.5476 25H17.1667C17.1667 23.1056 16.4141 21.2888 15.0746 19.9492C13.735 18.6097 11.9182 17.8571 10.0238 17.8571C8.1294 17.8571 6.31259 18.6097 4.97305 19.9492C3.6335 21.2888 2.88095 23.1056 2.88095 25H0.5ZM10.0238 14.2857C6.07738 14.2857 2.88095 11.0893 2.88095 7.14286C2.88095 3.19643 6.07738 0 10.0238 0C13.9702 0 17.1667 3.19643 17.1667 7.14286C17.1667 11.0893 13.9702 14.2857 10.0238 14.2857ZM10.0238 11.9048C12.6548 11.9048 14.7857 9.77381 14.7857 7.14286C14.7857 4.5119 12.6548 2.38095 10.0238 2.38095C7.39286 2.38095 5.2619 4.5119 5.2619 7.14286C5.2619 9.77381 7.39286 11.9048 10.0238 11.9048Z" fill="white"/>
</svg>
